<svg xmlns="http://www.w3.org/2000/svg" class="react-fast-charts-root-svg" width="540" height="450"><g transform="translate(35,30)"><rect class="bar" x="13" width="94" y="251.96629213483146" height="138.03370786516854" style="fill: rgb(132, 169, 172); stroke: none; stroke-width: 3;"/><rect class="bar" x="131" width="94" y="330.8426966292135" height="59.15730337078651" style="fill: rgb(132, 169, 172); stroke: none; stroke-width: 3;"/><rect class="bar" x="249" width="94" y="41.62921348314608" height="348.3707865168539" style="fill: rgb(132, 169, 172); stroke: none; stroke-width: 3;"/><rect class="bar" x="367" width="94" y="35.056179775280896" height="354.9438202247191" style="fill: rgb(132, 169, 172); stroke: none; stroke-width: 3;"/><rect class="bar" x="13" width="94" y="376.85393258426967" height="13.146067415730329" style="fill: rgb(77, 112, 130); stroke: none; stroke-width: 3;"/><rect class="bar" x="131" width="94" y="376.85393258426967" height="13.146067415730329" style="fill: rgb(77, 112, 130); stroke: none; stroke-width: 3;"/><rect class="bar" x="249" width="94" y="370.2808988764045" height="19.71910112359552" style="fill: rgb(77, 112, 130); stroke: none; stroke-width: 3;"/><rect class="bar" x="367" width="94" y="390" height="0" style="fill: rgb(77, 112, 130); stroke: none; stroke-width: 3;"/><rect class="bar" x="13" width="94" y="390" height="0" style="fill: rgb(32, 64, 82); stroke: none; stroke-width: 3;"/><rect class="bar" x="131" width="94" y="383.4269662921348" height="6.573033707865193" style="fill: rgb(32, 64, 82); stroke: none; stroke-width: 3;"/><rect class="bar" x="249" width="94" y="370.2808988764045" height="19.71910112359552" style="fill: rgb(32, 64, 82); stroke: none; stroke-width: 3;"/><rect class="bar" x="367" width="94" y="390" height="0" style="fill: rgb(32, 64, 82); stroke: none; stroke-width: 3;"/><g transform="translate(0,390)" fill="none" font-size="10" font-family="sans-serif" text-anchor="middle" style="font-family: &quot;Source Sans Pro&quot;, sans-serif;"><path class="domain" stroke="currentColor" d="M0.5,6V0.5H475.5V6"/><g class="tick" opacity="1" transform="translate(60.5,0)"><line stroke="currentColor" y2="6"/><text fill="currentColor" y="9" dy="0.71em">'03-'06</text></g><g class="tick" opacity="1" transform="translate(178.5,0)"><line stroke="currentColor" y2="6"/><text fill="currentColor" y="9" dy="0.71em">'07-'10</text></g><g class="tick" opacity="1" transform="translate(296.5,0)"><line stroke="currentColor" y2="6"/><text fill="currentColor" y="9" dy="0.71em">'11-'14</text></g><g class="tick" opacity="1" transform="translate(414.5,0)"><line stroke="currentColor" y2="6"/><text fill="currentColor" y="9" dy="0.71em">'15-'19</text></g></g><g fill="none" font-size="10" font-family="sans-serif" text-anchor="end" style="font-family: &quot;Source Sans Pro&quot;, sans-serif;"><path class="domain" stroke="currentColor" d="M-6,390.5H0.5V0.5H-6"/><g class="tick" opacity="1" transform="translate(0,390.5)"><line stroke="currentColor" x2="-6"/><text fill="currentColor" x="-9" dy="0.32em">0</text></g><g class="tick" opacity="1" transform="translate(0,346.67977528089887)"><line stroke="currentColor" x2="-6"/><text fill="currentColor" x="-9" dy="0.32em">20</text></g><g class="tick" opacity="1" transform="translate(0,302.85955056179773)"><line stroke="currentColor" x2="-6"/><text fill="currentColor" x="-9" dy="0.32em">40</text></g><g class="tick" opacity="1" transform="translate(0,259.03932584269666)"><line stroke="currentColor" x2="-6"/><text fill="currentColor" x="-9" dy="0.32em">60</text></g><g class="tick" opacity="1" transform="translate(0,215.21910112359552)"><line stroke="currentColor" x2="-6"/><text fill="currentColor" x="-9" dy="0.32em">80</text></g><g class="tick" opacity="1" transform="translate(0,171.39887640449436)"><line stroke="currentColor" x2="-6"/><text fill="currentColor" x="-9" dy="0.32em">100</text></g><g class="tick" opacity="1" transform="translate(0,127.57865168539327)"><line stroke="currentColor" x2="-6"/><text fill="currentColor" x="-9" dy="0.32em">120</text></g><g class="tick" opacity="1" transform="translate(0,83.75842696629212)"><line stroke="currentColor" x2="-6"/><text fill="currentColor" x="-9" dy="0.32em">140</text></g><g class="tick" opacity="1" transform="translate(0,39.93820224719102)"><line stroke="currentColor" x2="-6"/><text fill="currentColor" x="-9" dy="0.32em">160</text></g></g></g><text transform="translate(272.5, 435)" style="font-family: &quot;Source Sans Pro&quot;, sans-serif; font-size: 0.8rem; text-anchor: middle;"/><text y="15" x="30" dy="0.75em" style="font-size: 0.8rem; font-family: &quot;Source Sans Pro&quot;, sans-serif;">Estimated Capital Expenditure (Millions USD)</text></svg>